<svg width="3949" height="691" viewBox="0 0 3949 691" fill="none" xmlns="http://www.w3.org/2000/svg">
<g clip-path="url(#clip0_921_18)">
<path d="M78.8087 367.029L157.195 537.178L235.271 367.029H313.969L156.573 690.841L0.421875 367.029H78.8087Z" fill="black"/>
<path d="M626.272 535H409.153C411.019 559.885 419.107 579.689 433.416 594.412C447.724 608.929 466.077 616.187 488.473 616.187C505.892 616.187 520.305 612.039 531.71 603.744C542.908 595.449 555.662 580.104 569.97 557.708L629.071 590.68C619.947 606.233 610.304 619.608 600.143 630.806C589.982 641.797 579.095 650.921 567.482 658.179C555.869 665.23 543.323 670.414 529.844 673.732C516.365 677.05 501.745 678.709 485.984 678.709C440.777 678.709 404.487 664.193 377.114 635.161C349.741 605.922 336.054 567.143 336.054 518.825C336.054 470.922 349.326 432.144 375.87 402.489C402.621 373.25 438.081 358.63 482.252 358.63C526.837 358.63 562.09 372.835 588.012 401.245C613.726 429.448 626.583 468.537 626.583 518.514L626.272 535ZM554.417 477.765C544.671 440.438 521.134 421.775 483.807 421.775C475.305 421.775 467.321 423.123 459.856 425.819C452.39 428.307 445.547 432.04 439.326 437.017C433.312 441.786 428.128 447.593 423.773 454.436C419.418 461.279 416.1 469.056 413.819 477.765H554.417Z" fill="black"/>
<path d="M703.103 367.029H773.092V394.091C785.949 380.611 797.354 371.383 807.308 366.406C817.469 361.222 829.497 358.63 843.391 358.63C861.847 358.63 881.133 364.644 901.248 376.671L869.209 440.749C855.937 431.21 842.976 426.441 830.326 426.441C792.17 426.441 773.092 455.266 773.092 512.915V670H703.103V367.029Z" fill="black"/>
<path d="M1117.43 418.664L1059.58 449.459C1050.45 430.796 1039.15 421.464 1025.67 421.464C1019.24 421.464 1013.75 423.641 1009.19 427.996C1004.62 432.144 1002.34 437.535 1002.34 444.171C1002.34 455.784 1015.82 467.293 1042.78 478.699C1079.9 494.666 1104.89 509.39 1117.74 522.869C1130.6 536.348 1137.03 554.493 1137.03 577.304C1137.03 606.544 1126.25 631.014 1104.68 650.714C1083.74 669.378 1058.44 678.709 1028.78 678.709C977.976 678.709 941.996 653.928 920.844 604.366L980.568 576.682C988.863 591.198 995.188 600.426 999.542 604.366C1008.04 612.246 1018.21 616.187 1030.03 616.187C1053.67 616.187 1065.49 605.403 1065.49 583.836C1065.49 571.394 1056.36 559.781 1038.11 548.998C1031.06 545.473 1024.01 542.051 1016.96 538.733C1009.91 535.415 1002.76 531.993 995.499 528.468C975.176 518.514 960.867 508.56 952.572 498.606C941.996 485.957 936.708 469.678 936.708 449.77C936.708 423.434 945.729 401.66 963.771 384.448C982.227 367.236 1004.62 358.63 1030.96 358.63C1069.74 358.63 1098.56 378.641 1117.43 418.664Z" fill="black"/>
<path d="M1270.16 367.029V670H1200.18V367.029H1270.16ZM1189.6 241.05C1189.6 228.815 1194.06 218.239 1202.97 209.322C1211.89 200.405 1222.57 195.946 1235.01 195.946C1247.66 195.946 1258.45 200.405 1267.36 209.322C1276.28 218.031 1280.74 228.711 1280.74 241.361C1280.74 254.011 1276.28 264.794 1267.36 273.711C1258.65 282.628 1247.97 287.086 1235.32 287.086C1222.68 287.086 1211.89 282.628 1202.97 273.711C1194.06 264.794 1189.6 253.907 1189.6 241.05Z" fill="black"/>
<path d="M1344.51 516.337C1344.51 472.581 1360.16 435.358 1391.48 404.667C1422.79 373.976 1460.95 358.63 1505.95 358.63C1551.15 358.63 1589.52 374.079 1621.04 404.978C1652.14 435.876 1667.7 473.825 1667.7 518.825C1667.7 564.24 1652.04 602.293 1620.73 632.984C1589.21 663.467 1550.53 678.709 1504.7 678.709C1459.29 678.709 1421.23 663.156 1390.54 632.051C1359.85 601.359 1344.51 562.788 1344.51 516.337ZM1416.05 517.581C1416.05 547.857 1424.14 571.809 1440.31 589.436C1456.9 607.27 1478.78 616.187 1505.95 616.187C1533.32 616.187 1555.2 607.373 1571.58 589.747C1587.96 572.12 1596.15 548.583 1596.15 519.136C1596.15 489.689 1587.96 466.153 1571.58 448.526C1554.99 430.692 1533.11 421.775 1505.95 421.775C1479.19 421.775 1457.52 430.692 1440.93 448.526C1424.34 466.36 1416.05 489.378 1416.05 517.581Z" fill="black"/>
<path d="M1742.04 367.029H1812.34V395.024C1836.81 370.761 1864.39 358.63 1895.08 358.63C1930.33 358.63 1957.81 369.724 1977.51 391.913C1994.52 410.784 2003.02 441.579 2003.02 484.298V670H1932.72V500.784C1932.72 470.922 1928.57 450.289 1920.28 438.883C1912.19 427.27 1897.46 421.464 1876.11 421.464C1852.88 421.464 1836.39 429.137 1826.65 444.482C1817.11 459.62 1812.34 486.06 1812.34 523.802V670H1742.04V367.029Z" fill="black"/>
<path d="M2464.32 418.664L2406.46 449.459C2397.34 430.796 2386.03 421.464 2372.56 421.464C2366.13 421.464 2360.63 423.641 2356.07 427.996C2351.51 432.144 2349.23 437.535 2349.23 444.171C2349.23 455.784 2362.71 467.293 2389.66 478.699C2426.78 494.666 2451.77 509.39 2464.63 522.869C2477.49 536.348 2483.91 554.493 2483.91 577.304C2483.91 606.544 2473.13 631.014 2451.56 650.714C2430.62 669.378 2405.32 678.709 2375.67 678.709C2324.86 678.709 2288.88 653.928 2267.73 604.366L2327.45 576.682C2335.75 591.198 2342.07 600.426 2346.43 604.366C2354.93 612.246 2365.09 616.187 2376.91 616.187C2400.55 616.187 2412.37 605.403 2412.37 583.836C2412.37 571.394 2403.25 559.781 2385 548.998C2377.95 545.473 2370.9 542.051 2363.85 538.733C2356.8 535.415 2349.64 531.993 2342.38 528.468C2322.06 518.514 2307.75 508.56 2299.46 498.606C2288.88 485.957 2283.59 469.678 2283.59 449.77C2283.59 423.434 2292.61 401.66 2310.65 384.448C2329.11 367.236 2351.51 358.63 2377.84 358.63C2416.62 358.63 2445.45 378.641 2464.32 418.664Z" fill="black"/>
<path d="M2619.22 432.351V670H2549.24V432.351H2519.38V367.029H2549.24V255.981H2619.22V367.029H2673.66V432.351H2619.22Z" fill="black"/>
<path d="M2711.3 516.337C2711.3 472.581 2726.95 435.358 2758.27 404.667C2789.58 373.976 2827.74 358.63 2872.74 358.63C2917.94 358.63 2956.31 374.079 2987.83 404.978C3018.94 435.876 3034.49 473.825 3034.49 518.825C3034.49 564.24 3018.83 602.293 2987.52 632.984C2956 663.467 2917.32 678.709 2871.49 678.709C2826.08 678.709 2788.03 663.156 2757.33 632.051C2726.64 601.359 2711.3 562.788 2711.3 516.337ZM2782.84 517.581C2782.84 547.857 2790.93 571.809 2807.1 589.436C2823.69 607.27 2845.57 616.187 2872.74 616.187C2900.11 616.187 2921.99 607.373 2938.37 589.747C2954.75 572.12 2962.94 548.583 2962.94 519.136C2962.94 489.689 2954.75 466.153 2938.37 448.526C2921.78 430.692 2899.9 421.775 2872.74 421.775C2845.99 421.775 2824.32 430.692 2807.73 448.526C2791.14 466.36 2782.84 489.378 2782.84 517.581Z" fill="black"/>
<path d="M3108.83 367.029H3178.82V394.091C3191.68 380.611 3203.08 371.383 3213.04 366.406C3223.2 361.222 3235.22 358.63 3249.12 358.63C3267.57 358.63 3286.86 364.644 3306.98 376.671L3274.94 440.749C3261.66 431.21 3248.7 426.441 3236.05 426.441C3197.9 426.441 3178.82 455.266 3178.82 512.915V670H3108.83V367.029Z" fill="black"/>
<path d="M3618.66 535H3401.54C3403.4 559.885 3411.49 579.689 3425.8 594.412C3440.11 608.929 3458.46 616.187 3480.86 616.187C3498.28 616.187 3512.69 612.039 3524.09 603.744C3535.29 595.449 3548.05 580.104 3562.35 557.708L3621.46 590.68C3612.33 606.233 3602.69 619.608 3592.53 630.806C3582.37 641.797 3571.48 650.921 3559.87 658.179C3548.25 665.23 3535.71 670.414 3522.23 673.732C3508.75 677.05 3494.13 678.709 3478.37 678.709C3433.16 678.709 3396.87 664.193 3369.5 635.161C3342.13 605.922 3328.44 567.143 3328.44 518.825C3328.44 470.922 3341.71 432.144 3368.25 402.489C3395.01 373.25 3430.47 358.63 3474.64 358.63C3519.22 358.63 3554.47 372.835 3580.4 401.245C3606.11 429.448 3618.97 468.537 3618.97 518.514L3618.66 535ZM3546.8 477.765C3537.06 440.438 3513.52 421.775 3476.19 421.775C3467.69 421.775 3459.71 423.123 3452.24 425.819C3444.77 428.307 3437.93 432.04 3431.71 437.017C3425.7 441.786 3420.51 447.593 3416.16 454.436C3411.8 461.279 3408.48 469.056 3406.2 477.765H3546.8Z" fill="black"/>
<path d="M3755.89 86.5957L3793.59 168.435L3831.15 86.5957H3869L3793.29 242.346L3718.19 86.5957H3755.89Z" fill="black"/>
<circle cx="3800.43" cy="148.707" r="134.592" stroke="black" stroke-width="27.6797"/>
</g>
<defs>
<clipPath id="clip0_921_18">
<rect width="3949" height="691" fill="white"/>
</clipPath>
</defs>
</svg>
